<svg xmlns="http://www.w3.org/2000/svg" xmlns:xlink="http://www.w3.org/1999/xlink" width="500" zoomAndPan="magnify" viewBox="0 0 375 374.999991" height="500" preserveAspectRatio="xMidYMid meet" version="1.0"><defs><g/><clipPath id="cedf7c24e3"><path d="M 25 99.957031 L 109 99.957031 L 109 208.707031 L 25 208.707031 Z M 25 99.957031 " clip-rule="nonzero"/></clipPath><clipPath id="144e7edcb4"><path d="M 128 106 L 217.175781 106 L 217.175781 204.957031 L 128 204.957031 Z M 128 106 " clip-rule="nonzero"/></clipPath></defs><g clip-path="url(#cedf7c24e3)"><path fill="#ffffff" d="M 60.273438 208.707031 C 49.832031 208.707031 38.1875 202.316406 31.328125 192.78125 C 26.109375 185.496094 24.5625 177.5 26.972656 170.246094 C 27.152344 169.601562 27.492188 169.054688 27.992188 168.609375 C 28.671875 167.960938 29.320312 167.28125 29.96875 166.601562 C 31.203125 165.367188 32.441406 164.101562 33.769531 162.898438 L 36.980469 160.644531 L 38.125 159.84375 C 36.363281 158.515625 34.777344 157.003906 33.371094 155.304688 C 31.964844 153.605469 30.773438 151.769531 29.796875 149.789062 C 28.824219 147.808594 28.09375 145.746094 27.605469 143.59375 C 27.117188 141.445312 26.886719 139.265625 26.910156 137.0625 C 26.972656 128.171875 31.082031 120.207031 38.21875 115.238281 C 47.671875 105.390625 59.132812 99.957031 70.53125 99.957031 C 73.90625 99.964844 77.222656 100.417969 80.476562 101.316406 C 90.457031 103.816406 102.289062 110.699219 105.5 122.460938 C 105.648438 123.171875 105.835938 123.871094 106.058594 124.558594 C 106.828125 127.246094 107.570312 129.746094 104.882812 132.800781 C 101.621094 136.390625 97.964844 139.519531 93.917969 142.1875 C 104.945312 147.464844 110.691406 159.195312 107.941406 170.957031 C 106.304688 179.660156 99.785156 189.105469 89.992188 196.886719 C 80.910156 204.140625 70.4375 208.617188 62.683594 208.617188 L 62.3125 208.617188 C 61.675781 208.675781 60.996094 208.707031 60.273438 208.707031 Z M 60.273438 208.707031 " fill-opacity="1" fill-rule="nonzero"/></g><path fill="#ff053d" d="M 42.140625 161.910156 L 36.269531 166.046875 C 34.386719 167.808594 32.625 169.660156 30.804688 171.480469 C 25.550781 188.058594 44.921875 205.21875 61.109375 204.570312 C 72.324219 205.128906 82.824219 197.871094 90.828125 190.527344 C 110.320312 174.445312 110.257812 147.957031 82.515625 142.585938 C 85.171875 141.507812 88.324219 140.644531 90.859375 139.40625 L 96.757812 135.242188 C 98.550781 133.480469 100.3125 131.722656 102.070312 129.929688 C 103.957031 114.003906 84.214844 103.753906 70.191406 104.09375 C 58.019531 103.878906 48.84375 110.515625 40.84375 118.292969 C 24.839844 130.023438 28.917969 152.652344 46.589844 160.152344 C 45.136719 160.769531 43.46875 161.109375 42.140625 161.910156 Z M 65.929688 167.621094 C 69.171875 168.175781 71.734375 171.605469 72.292969 174.722656 C 66.792969 174.289062 61.601562 170.367188 58.976562 165.214844 C 61.324219 166.046875 63.640625 166.882812 65.929688 167.621094 Z M 67.101562 135.023438 C 69.046875 135.800781 70.570312 137.074219 71.675781 138.851562 C 69.726562 137.804688 68.089844 136.597656 67.101562 135.023438 Z M 67.101562 135.023438 " fill-opacity="1" fill-rule="nonzero"/><path fill="#ffe505" d="M 72.632812 195.1875 L 72.230469 195.1875 C 63.703125 195.1875 55.023438 191.453125 49 185.15625 C 43.5 179.414062 40.628906 172.128906 40.9375 164.597656 C 40.96875 162.867188 41.617188 161.941406 43.253906 161.355469 C 45.722656 160.492188 48.164062 159.597656 50.851562 158.578125 L 50.976562 158.578125 C 51.542969 158.414062 52.089844 158.199219 52.613281 157.929688 C 53.507812 157.527344 54.4375 157.09375 55.269531 157.09375 C 56.105469 157.09375 57.09375 157.496094 57.246094 159.472656 C 58.050781 167.652344 65.558594 174.8125 73.3125 174.8125 C 75.441406 174.820312 77.441406 174.304688 79.304688 173.269531 C 82.546875 171.296875 83.351562 168.824219 83.476562 167.066406 C 83.816406 163.640625 80.878906 158.917969 77.019531 158.269531 L 76.925781 158.269531 C 70.871094 156.230469 64.414062 153.976562 58.175781 151.015625 C 50.109375 148.019531 43.839844 140.488281 42.203125 131.785156 C 40.78125 124.34375 43.035156 117.367188 48.320312 112.613281 C 53.449219 107.148438 61.230469 104.15625 70.191406 104.15625 C 84.277344 104.15625 99.910156 112.058594 102.535156 127.183594 C 102.9375 129.46875 102.691406 129.929688 100.558594 130.734375 C 98.425781 131.535156 96.757812 132.09375 94.90625 132.800781 C 92 133.882812 89.003906 135.023438 86.007812 135.917969 L 85.824219 135.917969 C 84.183594 135.917969 84.0625 134.253906 83.96875 133.359375 L 83.96875 133.050781 C 83.445312 127.738281 78.46875 124.867188 74.082031 124.867188 C 72.59375 124.855469 71.171875 125.164062 69.820312 125.792969 C 67.316406 126.96875 66.113281 128.574219 65.988281 130.828125 C 65.589844 137.988281 74.730469 140.488281 82.796875 142.710938 C 85.824219 143.542969 88.695312 144.316406 90.734375 145.273438 C 97.652344 147.957031 104.511719 154.902344 104.296875 163.113281 C 104.976562 170.894531 102.289062 178.550781 96.695312 184.628906 C 90.640625 191.265625 81.777344 195.21875 73.003906 195.21875 Z M 72.632812 195.1875 " fill-opacity="1" fill-rule="nonzero"/><path fill="#820022" d="M 84.957031 194.015625 C 84.851562 193.796875 84.675781 193.695312 84.433594 193.707031 L 84.214844 193.707031 C 80.601562 195.0625 76.863281 195.753906 73.003906 195.773438 L 72.230469 195.773438 C 67.332031 195.753906 62.679688 194.683594 58.265625 192.5625 L 49.308594 201.484375 C 52.953125 203.089844 56.753906 203.984375 60.304688 203.984375 L 62.3125 203.984375 C 69.417969 203.984375 76.769531 200.992188 84.804688 194.816406 C 84.925781 194.722656 85.003906 194.597656 85.03125 194.445312 C 85.0625 194.292969 85.035156 194.148438 84.957031 194.015625 Z M 84.957031 194.015625 " fill-opacity="1" fill-rule="nonzero"/><path fill="#820022" d="M 82.578125 141.9375 L 82.425781 141.9375 L 81.496094 141.691406 C 81.398438 141.65625 81.316406 141.597656 81.242188 141.523438 C 81.171875 141.445312 81.125 141.355469 81.097656 141.253906 C 81.066406 141.152344 81.066406 141.050781 81.085938 140.949219 C 81.109375 140.847656 81.152344 140.753906 81.21875 140.671875 L 84.894531 136.691406 C 85.011719 136.539062 85.167969 136.46875 85.359375 136.476562 L 85.824219 136.476562 C 85.953125 136.484375 86.074219 136.464844 86.191406 136.414062 C 89.191406 135.519531 92.21875 134.375 95.121094 133.296875 L 96.789062 132.648438 L 97.003906 132.648438 C 97.226562 132.648438 97.402344 132.742188 97.53125 132.925781 C 97.609375 133.050781 97.636719 133.183594 97.621094 133.328125 C 97.605469 133.472656 97.542969 133.597656 97.4375 133.699219 L 96.386719 134.714844 L 96.324219 134.777344 L 93.515625 136.753906 L 93.390625 136.847656 C 91.753906 138.019531 90.980469 138.542969 90.640625 138.820312 L 90.550781 138.882812 C 89.097656 139.5625 87.398438 140.148438 85.792969 140.734375 L 83.257812 141.628906 L 82.980469 141.816406 C 82.863281 141.910156 82.730469 141.953125 82.578125 141.9375 Z M 82.578125 141.9375 " fill-opacity="1" fill-rule="nonzero"/><path fill="#820022" d="M 78.039062 159.164062 C 75.011719 162.21875 71.953125 165.246094 68.894531 168.269531 C 70.753906 169.667969 72.019531 171.476562 72.691406 173.703125 C 72.726562 173.835938 72.800781 173.949219 72.910156 174.035156 C 73.019531 174.121094 73.140625 174.164062 73.28125 174.164062 L 73.3125 174.164062 C 75.34375 174.167969 77.25 173.675781 79.027344 172.683594 C 81.992188 170.863281 82.765625 168.609375 82.855469 167.035156 C 83.136719 164.195312 81.035156 160.398438 78.039062 159.164062 Z M 78.039062 159.164062 " fill-opacity="1" fill-rule="nonzero"/><path fill="#820022" d="M 72.074219 138.359375 L 81.621094 128.882812 C 79.796875 126.628906 76.832031 125.457031 74.082031 125.457031 C 72.691406 125.453125 71.363281 125.742188 70.097656 126.320312 C 67.8125 127.371094 66.730469 128.820312 66.609375 130.828125 C 66.421875 134.316406 68.707031 136.628906 72.074219 138.359375 Z M 72.074219 138.359375 " fill-opacity="1" fill-rule="nonzero"/><path fill="#000000" d="M 62.3125 205.835938 L 60.242188 205.835938 C 50.914062 205.835938 40.472656 200.3125 34.203125 192.101562 C 29.074219 185.402344 27.46875 177.933594 29.628906 171.109375 L 29.691406 170.894531 L 29.785156 170.769531 L 29.9375 170.585938 C 30.585938 169.96875 31.203125 169.320312 31.824219 168.703125 C 32.996094 167.5 34.203125 166.292969 35.4375 165.152344 L 35.5625 165.058594 L 42.171875 160.367188 L 42.449219 160.367188 L 42.851562 160.246094 L 43.40625 159.996094 C 35.808594 155.800781 30.710938 148.421875 29.753906 140.148438 C 28.703125 131.257812 32.472656 122.953125 40.039062 117.367188 C 43.097656 114.375 47.269531 110.578125 52.335938 107.675781 C 55.671875 105.585938 59.277344 104.1875 63.148438 103.476562 L 63.582031 103.414062 C 65.589844 103.035156 67.621094 102.839844 69.664062 102.828125 L 70.871094 102.828125 C 73.894531 102.851562 76.871094 103.242188 79.796875 104 C 84.550781 105.144531 88.914062 107.128906 92.898438 109.960938 C 94.699219 111.222656 96.347656 112.664062 97.839844 114.28125 C 100.3125 117.027344 102.011719 120.023438 102.84375 123.234375 C 103.222656 124.4375 103.523438 125.664062 103.738281 126.90625 C 104.050781 128.636719 104.019531 129.902344 102.96875 130.796875 L 102.226562 131.535156 C 100.710938 133.050781 99.199219 134.59375 97.625 136.105469 L 97.53125 136.167969 C 97.285156 136.382812 96.605469 136.847656 94.597656 138.265625 L 91.753906 140.273438 L 91.628906 140.363281 L 91.414062 140.488281 C 89.960938 141.167969 88.324219 141.753906 86.75 142.308594 C 90.140625 143.28125 93.292969 144.761719 96.203125 146.753906 C 101.609375 150.519531 105.070312 156.015625 105.5 161.511719 C 105.9375 164.492188 105.835938 167.457031 105.191406 170.398438 C 104.707031 173 103.894531 175.492188 102.75 177.878906 C 101.609375 180.265625 100.179688 182.464844 98.457031 184.476562 C 96.433594 187.058594 94.15625 189.394531 91.628906 191.484375 C 81.066406 201.144531 71.457031 205.835938 62.3125 205.835938 Z M 61.171875 203.335938 L 62.3125 203.335938 C 69.265625 203.335938 76.492188 200.375 84.433594 194.292969 C 80.75 195.679688 76.9375 196.378906 73.003906 196.390625 L 72.230469 196.390625 C 63.363281 196.390625 54.375 192.5 48.101562 185.988281 C 42.511719 180.15625 39.546875 172.746094 39.699219 165.121094 L 37.074219 166.972656 C 35.871094 168.085938 34.726562 169.257812 33.613281 170.367188 L 33.613281 170.429688 L 31.914062 172.097656 C 30.15625 178.085938 31.667969 184.628906 36.179688 190.558594 C 41.894531 198.121094 51.808594 203.367188 60.304688 203.367188 L 61.171875 203.367188 Z M 73.003906 193.953125 C 81.4375 193.953125 89.929688 190.15625 95.800781 183.765625 L 96.296875 183.210938 C 99.691406 178.890625 101.949219 174.136719 102.84375 169.472656 C 103.179688 167.394531 103.25 165.304688 103.058594 163.207031 L 103.058594 163.085938 C 103.082031 162.671875 103.070312 162.261719 103.03125 161.847656 C 102.9375 161.292969 102.84375 160.738281 102.71875 160.246094 C 101.515625 155.273438 98.394531 151.078125 93.699219 148.113281 C 92.621094 147.453125 91.488281 146.894531 90.300781 146.445312 L 90.238281 146.445312 C 88.261719 145.519531 85.453125 144.75 82.484375 143.914062 C 73.960938 141.601562 64.289062 138.945312 64.785156 130.796875 C 64.910156 128.046875 66.390625 126.074219 69.296875 124.714844 C 70.808594 123.996094 72.40625 123.644531 74.082031 123.664062 C 79.027344 123.664062 84.585938 126.90625 85.171875 132.957031 C 85.199219 133.078125 85.210938 133.203125 85.203125 133.328125 C 85.296875 134.625 85.511719 134.714844 85.730469 134.714844 C 88.664062 133.820312 91.597656 132.710938 94.472656 131.628906 L 100.15625 129.5625 L 100.898438 129.28125 C 101.039062 127.476562 100.882812 125.699219 100.433594 123.941406 C 98.859375 119.25 95.832031 115.238281 91.414062 111.996094 C 87.757812 109.484375 83.78125 107.664062 79.488281 106.53125 C 76.449219 105.769531 73.359375 105.386719 70.222656 105.390625 C 68.160156 105.359375 66.113281 105.503906 64.074219 105.824219 C 60.328125 106.546875 56.816406 107.886719 53.539062 109.835938 C 51.953125 110.855469 50.511719 112.046875 49.214844 113.417969 L 49.152344 113.476562 C 44.179688 117.921875 42.078125 124.5 43.40625 131.503906 C 44.984375 139.777344 50.945312 146.941406 58.574219 149.8125 L 58.667969 149.8125 C 64.878906 152.710938 71.273438 154.964844 77.296875 157.003906 C 81.867188 157.804688 85.082031 163.207031 84.710938 167.128906 C 84.585938 169.132812 83.628906 172.035156 79.953125 174.257812 L 79.921875 174.257812 C 77.949219 175.34375 75.839844 175.898438 73.589844 175.925781 C 73.539062 175.976562 73.476562 175.996094 73.402344 175.988281 L 73.371094 175.988281 L 72.136719 175.894531 L 70.714844 175.710938 L 70.375 175.648438 L 70.097656 175.585938 C 65 174.414062 60.429688 170.738281 57.863281 165.707031 L 56.816406 163.640625 C 56.738281 163.519531 56.746094 163.40625 56.84375 163.300781 C 56.417969 162.066406 56.140625 160.800781 56.011719 159.503906 C 55.917969 158.238281 55.488281 158.238281 55.269531 158.238281 C 55.054688 158.238281 53.910156 158.609375 53.136719 158.949219 C 52.539062 159.265625 51.910156 159.511719 51.253906 159.6875 L 46.992188 161.261719 C 46.527344 161.480469 46.035156 161.632812 45.601562 161.789062 L 43.746094 162.4375 L 42.820312 162.898438 C 42.355469 163.238281 42.203125 163.703125 42.171875 164.566406 C 41.894531 171.726562 44.613281 178.703125 49.894531 184.230469 C 55.671875 190.25 64.042969 193.859375 72.230469 193.859375 L 73.003906 193.859375 Z M 73.3125 173.546875 C 75.234375 173.554688 77.035156 173.089844 78.71875 172.160156 C 81.464844 170.492188 82.144531 168.425781 82.238281 166.972656 C 82.515625 164.101562 80.015625 159.996094 76.832031 159.441406 L 76.554688 159.378906 C 70.46875 157.3125 63.980469 155.058594 57.679688 152.09375 C 49.277344 148.945312 42.695312 141.042969 40.996094 131.96875 C 40.070312 127.152344 40.597656 122.523438 42.480469 118.449219 C 42.199219 118.671875 41.941406 118.917969 41.707031 119.1875 L 41.585938 119.28125 C 34.695312 124.34375 31.265625 131.8125 32.195312 139.839844 C 33.121094 147.867188 38.558594 155.242188 46.652344 158.824219 L 50.421875 157.40625 L 50.761719 157.3125 C 51.222656 157.191406 51.667969 157.015625 52.089844 156.785156 C 53.109375 156.324219 54.15625 155.828125 55.269531 155.828125 C 56.382812 155.828125 58.234375 156.078125 58.484375 159.378906 C 58.65625 161.0625 59.109375 162.667969 59.84375 164.195312 C 61.632812 164.84375 63.949219 165.675781 66.238281 166.417969 C 69.726562 167.066406 72.382812 170.460938 73.28125 173.546875 Z M 61.972656 167.589844 C 64.257812 170.367188 67.347656 172.4375 70.53125 173.179688 C 69.664062 171.265625 67.90625 169.195312 65.710938 168.824219 L 65.558594 168.824219 Z M 82.578125 141.320312 L 83.042969 141.074219 C 83.875 140.734375 84.742188 140.457031 85.574219 140.148438 C 87.171875 139.625 88.738281 139.019531 90.269531 138.328125 C 90.609375 138.050781 91.351562 137.523438 93.113281 136.289062 L 93.175781 136.289062 L 95.957031 134.316406 L 97.003906 133.296875 L 95.335938 133.914062 C 92.433594 135.023438 89.40625 136.167969 86.347656 137.09375 L 85.824219 137.15625 L 85.359375 137.15625 L 81.683594 141.136719 Z M 74.082031 126.074219 C 72.777344 126.066406 71.53125 126.335938 70.34375 126.875 C 68.277344 127.863281 67.316406 129.066406 67.226562 130.855469 C 66.949219 135.949219 72.691406 138.421875 79.027344 140.335938 L 83.289062 135.671875 C 82.957031 134.957031 82.78125 134.207031 82.765625 133.417969 C 82.738281 133.328125 82.726562 133.234375 82.734375 133.140625 C 82.269531 128.542969 77.945312 126.074219 74.082031 126.074219 Z M 74.082031 126.074219 " fill-opacity="1" fill-rule="nonzero"/><g clip-path="url(#144e7edcb4)"><path fill="#ffffff" d="M 165.570312 204.929688 C 158.644531 204.929688 152.257812 202.6875 146.582031 198.261719 C 141.503906 194.289062 137.132812 188.582031 134.011719 181.800781 C 132.144531 177.714844 130.777344 173.46875 129.910156 169.0625 C 129.042969 164.65625 128.699219 160.210938 128.875 155.722656 C 129.300781 146.414062 132.167969 138.410156 137.160156 132.59375 C 142.496094 125.042969 148.996094 118.601562 155.921875 113.976562 C 163.78125 108.726562 171.671875 106.085938 179.445312 106.085938 C 188.074219 106.085938 196.160156 109.40625 203.511719 115.964844 C 211.769531 123.570312 216.851562 134.011719 217.105469 143.886719 C 216.933594 145.761719 215.65625 146.953125 214.464844 148.085938 C 214.097656 148.429688 213.757812 148.742188 213.445312 149.082031 C 211.855469 150.785156 210.324219 152.289062 208.109375 153.761719 C 205.894531 155.238281 203.285156 157.480469 200.363281 157.480469 L 199.59375 157.480469 C 198.035156 157.394531 196.332031 157.367188 194.375 157.367188 C 191.707031 157.367188 188.980469 157.425781 186.371094 157.480469 L 184.554688 157.539062 C 180.75 157.339844 178.964844 154.414062 177.234375 151.636719 C 175.5 148.855469 173.96875 146.300781 170.648438 145.875 C 168.890625 151.492188 168.605469 159.722656 171.925781 165.652344 C 173.683594 168.804688 176.238281 170.847656 179.53125 171.726562 C 180.355469 168.890625 182.652344 166.789062 184.839844 164.746094 C 185.546875 164.09375 186.230469 163.496094 186.851562 162.84375 L 186.910156 162.789062 C 187.617188 162.351562 188.285156 161.871094 188.925781 161.339844 C 190.910156 159.835938 193.378906 157.992188 195.421875 157.992188 C 195.617188 157.980469 195.804688 158 195.992188 158.046875 C 200.445312 158.304688 204.617188 158.558594 209.160156 158.898438 L 209.386719 158.898438 C 211.34375 158.898438 213.21875 159.722656 214.296875 161.054688 C 214.714844 161.566406 215 162.144531 215.152344 162.789062 C 215.300781 163.429688 215.300781 164.074219 215.148438 164.71875 C 213.105469 174.167969 206.378906 184.183594 196.644531 192.273438 C 186.910156 200.359375 176.097656 204.957031 166.875 204.957031 L 165.570312 204.957031 Z M 165.570312 204.929688 " fill-opacity="1" fill-rule="nonzero"/></g><path fill="#ff053d" d="M 166.761719 201.242188 C 176.464844 201.242188 184.839844 196.585938 192.132812 190.882812 C 201.070312 183.789062 208.902344 175.699219 211.542969 163.867188 C 211.601562 163.070312 210.691406 162.730469 209.839844 162.644531 C 205.667969 162.332031 201.242188 162.050781 195.933594 161.738281 C 195.394531 161.710938 194.914062 161.679688 194.402344 161.992188 L 189.039062 165.796875 L 184.15625 170.675781 C 183.023438 171.867188 182.824219 174.367188 181.914062 175.8125 C 165.058594 174.648438 162.988281 154.074219 168.066406 142.15625 C 179.957031 141.078125 180.296875 154.472656 184.894531 153.820312 C 190.03125 153.761719 194.882812 153.566406 199.9375 153.792969 C 202.40625 154.246094 206.066406 150.441406 207.910156 149.421875 C 209.1875 148.199219 210.40625 146.925781 211.65625 145.675781 C 212.308594 144.9375 213.445312 144.339844 213.445312 143.261719 C 211.34375 117.808594 181.714844 99.957031 160.234375 115.652344 C 152.542969 120.789062 145.390625 127.085938 140.113281 134.804688 C 122.746094 156.886719 136.253906 201.382812 166.761719 201.242188 Z M 166.761719 201.242188 " fill-opacity="1" fill-rule="nonzero"/><path fill="#ffe505" d="M 176.949219 192.613281 C 164.40625 192.386719 153.707031 185.066406 147.546875 172.492188 C 144.027344 165.3125 142.328125 156.855469 142.695312 148.710938 C 143.09375 140.085938 145.730469 132.28125 150.300781 126.179688 C 153.847656 120.757812 158.191406 116.585938 163.269531 113.75 C 165.601562 112.453125 168.054688 111.46875 170.636719 110.800781 C 173.21875 110.132812 175.84375 109.800781 178.507812 109.804688 C 186.683594 109.804688 194.6875 112.957031 201.042969 118.714844 C 207.824219 124.875 212.109375 133.359375 213.445312 143.261719 C 213.480469 143.3125 213.480469 143.359375 213.445312 143.40625 C 213.1875 145.164062 210.976562 145.164062 210.152344 145.164062 L 208.394531 145.078125 L 208.363281 145.078125 L 206.890625 145.023438 L 205.808594 145.023438 C 202.261719 145.023438 198.773438 145.050781 195.113281 145.136719 L 194.800781 145.136719 C 193.039062 145.136719 192.101562 143.460938 190.996094 141.53125 C 189.890625 139.601562 188.414062 136.933594 185.546875 135.289062 L 185.492188 135.289062 C 183.792969 134.015625 181.882812 133.382812 179.757812 133.386719 C 175.445312 133.386719 171.160156 136.140625 169.058594 140.226562 C 164.773438 147.378906 164.460938 158.671875 168.292969 166.503906 C 170.167969 170.28125 173.828125 174.992188 180.75 175.839844 C 187.589844 175.757812 191.90625 169.117188 193.523438 163.441406 C 193.949219 162.105469 194.457031 161.652344 195.507812 161.652344 L 195.933594 161.652344 C 201.242188 161.964844 205.667969 162.25 209.839844 162.5625 C 210.605469 162.617188 211.175781 162.902344 211.484375 163.355469 C 211.582031 163.488281 211.601562 163.628906 211.542969 163.78125 C 207.457031 180.75 193.890625 192.046875 176.976562 192.527344 L 176.949219 192.527344 Z M 176.949219 192.613281 " fill-opacity="1" fill-rule="nonzero"/><path fill="#820022" d="M 190.457031 190.855469 C 190.335938 190.667969 190.167969 190.574219 189.945312 190.570312 L 189.746094 190.570312 C 185.652344 192.175781 181.402344 193.035156 177.003906 193.152344 L 176.949219 193.152344 C 174.261719 193.109375 171.625 192.734375 169.035156 192.023438 C 166.445312 191.3125 163.984375 190.289062 161.652344 188.953125 L 153.28125 197.410156 C 157.457031 199.59375 161.90625 200.679688 166.617188 200.671875 L 166.761719 200.671875 C 174.480469 200.671875 181.945312 197.777344 190.285156 191.589844 C 190.40625 191.507812 190.480469 191.394531 190.511719 191.253906 C 190.546875 191.113281 190.527344 190.980469 190.457031 190.855469 Z M 190.457031 190.855469 " fill-opacity="1" fill-rule="nonzero"/><path fill="#820022" d="M 178.085938 145.449219 L 186.683594 136.820312 C 186.234375 136.453125 185.761719 136.121094 185.265625 135.828125 L 185.179688 135.769531 C 183.570312 134.574219 181.761719 133.980469 179.757812 133.984375 C 175.644531 133.984375 171.558594 136.59375 169.570312 140.511719 L 169.570312 140.566406 L 169.484375 140.679688 C 169.394531 140.871094 169.394531 141.058594 169.484375 141.25 C 169.59375 141.429688 169.757812 141.523438 169.96875 141.53125 C 173.714844 141.675781 176.238281 143.375 178.085938 145.449219 Z M 178.085938 145.449219 " fill-opacity="1" fill-rule="nonzero"/><path fill="#820022" d="M 200.363281 153.253906 L 199.964844 153.253906 C 198.316406 153.167969 196.585938 153.140625 194.628906 153.140625 L 188.753906 153.222656 L 186.457031 153.222656 C 186.210938 153.207031 186.039062 153.082031 185.949219 152.851562 C 185.855469 152.621094 185.894531 152.414062 186.058594 152.230469 L 193.066406 145.675781 C 193.179688 145.570312 193.3125 145.523438 193.464844 145.535156 L 193.664062 145.535156 C 194.03125 145.671875 194.410156 145.738281 194.800781 145.730469 L 195.167969 145.730469 C 198.800781 145.648438 202.261719 145.617188 205.808594 145.617188 L 206.890625 145.617188 L 208.335938 145.675781 L 208.363281 145.675781 L 209.5 145.761719 C 209.75 145.75 209.910156 145.863281 209.980469 146.101562 C 210.085938 146.335938 210.046875 146.542969 209.867188 146.726562 L 207.625 148.9375 L 207.511719 149.023438 C 206.945312 149.363281 206.292969 149.875 205.527344 150.441406 C 203.878906 151.691406 201.835938 153.253906 200.363281 153.253906 Z M 200.363281 153.253906 " fill-opacity="1" fill-rule="nonzero"/><path fill="#000000" d="M 166.617188 202.375 C 153.90625 202.375 142.921875 194.796875 136.480469 181.601562 C 128.675781 165.652344 129.78125 146.101562 139.203125 134.125 C 144.027344 127.058594 150.898438 120.53125 159.609375 114.742188 C 159.644531 114.6875 159.691406 114.652344 159.75 114.628906 L 159.835938 114.542969 C 162.484375 112.621094 165.367188 111.152344 168.476562 110.140625 C 171.589844 109.128906 174.78125 108.617188 178.054688 108.613281 C 178.964844 108.613281 179.871094 108.671875 180.78125 108.726562 C 188.414062 109.265625 195.878906 112.5 201.808594 117.863281 C 204.242188 120.078125 206.351562 122.566406 208.136719 125.328125 C 209.964844 127.976562 211.421875 130.8125 212.515625 133.835938 C 213.605469 136.859375 214.292969 139.976562 214.578125 143.179688 C 214.597656 143.179688 214.609375 143.1875 214.609375 143.207031 C 214.609375 143.226562 214.597656 143.234375 214.578125 143.234375 C 214.609375 143.339844 214.609375 143.441406 214.578125 143.546875 C 214.496094 144.222656 214.203125 144.792969 213.699219 145.25 C 213.496094 145.472656 213.277344 145.679688 213.046875 145.875 L 211.628906 147.292969 C 210.664062 148.285156 209.699219 149.28125 208.675781 150.214844 L 208.621094 150.300781 L 208.535156 150.359375 L 208.449219 150.359375 C 207.792969 150.789062 207.167969 151.261719 206.578125 151.777344 C 204.730469 153.195312 202.433594 154.957031 200.363281 154.957031 L 199.824219 154.957031 C 198.234375 154.871094 196.53125 154.839844 194.628906 154.839844 L 188.78125 154.925781 L 184.980469 154.984375 L 184.554688 154.984375 C 182.339844 154.984375 181.0625 152.910156 179.589844 150.527344 C 177.601562 147.265625 175.105469 143.234375 169.371094 143.234375 L 168.859375 143.234375 C 167.339844 147.296875 166.648438 151.5 166.789062 155.835938 C 167.015625 159.582031 167.867188 163.128906 169.316406 166.050781 C 170.371094 168.269531 171.835938 170.171875 173.714844 171.753906 C 175.960938 173.417969 178.476562 174.375 181.261719 174.621094 C 181.449219 174.148438 181.609375 173.664062 181.746094 173.175781 C 182.140625 171.980469 182.511719 170.734375 183.335938 169.882812 L 183.902344 169.316406 C 185.320312 167.894531 186.769531 166.421875 188.242188 165 L 188.355469 164.886719 L 193.75 161.085938 L 193.777344 161.085938 L 194.0625 160.941406 L 194.316406 160.800781 L 194.488281 160.746094 L 194.574219 160.746094 C 194.878906 160.648438 195.1875 160.601562 195.507812 160.601562 L 195.992188 160.601562 C 200.957031 160.886719 205.101562 161.140625 208.988281 161.425781 L 209.925781 161.511719 C 210.371094 161.539062 210.792969 161.644531 211.203125 161.824219 L 211.429688 161.824219 C 211.824219 162.023438 212.144531 162.308594 212.394531 162.675781 C 212.394531 162.703125 212.421875 162.703125 212.421875 162.730469 C 212.660156 163.074219 212.746094 163.453125 212.679688 163.867188 L 212.679688 164.066406 C 212.011719 167.09375 210.96875 169.988281 209.554688 172.75 C 208.078125 175.8125 206.214844 178.621094 203.964844 181.175781 C 201.242188 184.441406 197.949219 187.617188 193.550781 191.167969 C 193.523438 191.167969 193.523438 191.195312 193.492188 191.222656 L 192.871094 191.707031 C 183.617188 198.914062 175.332031 202.289062 166.789062 202.289062 Z M 148.855469 126.234375 C 145.945312 129.042969 143.34375 132.105469 141.050781 135.429688 L 140.992188 135.488281 C 132.082031 146.839844 131.089844 165.371094 138.523438 180.609375 C 144.566406 193.011719 154.8125 200.105469 166.617188 200.105469 L 166.761719 200.105469 C 174.308594 200.105469 181.714844 197.238281 189.945312 191.136719 C 185.785156 192.753906 181.46875 193.625 177.003906 193.75 L 176.949219 193.75 C 163.953125 193.519531 152.882812 185.945312 146.527344 172.976562 C 144.707031 169.1875 143.378906 165.238281 142.539062 161.121094 C 141.695312 157.007812 141.371094 152.851562 141.558594 148.65625 C 141.957031 140.140625 144.453125 132.421875 148.855469 126.234375 Z M 178.507812 110.941406 C 175.9375 110.933594 173.40625 111.253906 170.914062 111.898438 C 168.425781 112.542969 166.054688 113.488281 163.808594 114.742188 C 162.902344 115.253906 162.019531 115.820312 161.140625 116.417969 L 161.085938 116.417969 C 157.136719 119.230469 153.863281 122.683594 151.265625 126.777344 L 151.265625 126.832031 C 146.808594 132.792969 144.257812 140.367188 143.859375 148.742188 C 143.675781 152.75 143.984375 156.722656 144.785156 160.65625 C 145.589844 164.589844 146.859375 168.363281 148.597656 171.980469 C 154.558594 184.15625 164.917969 191.25 177.003906 191.476562 C 186.964844 191.195312 195.992188 186.996094 202.375 179.644531 C 204.335938 177.308594 206.011719 174.78125 207.398438 172.066406 C 208.703125 169.464844 209.707031 166.75 210.40625 163.921875 L 210.265625 163.921875 C 210.09375 163.851562 209.914062 163.804688 209.726562 163.78125 C 205.839844 163.496094 201.753906 163.242188 196.898438 162.957031 L 195.878906 162.902344 L 195.453125 162.902344 C 195.296875 162.886719 195.152344 162.921875 195.027344 163.015625 C 194.824219 163.277344 194.683594 163.570312 194.601562 163.894531 C 193.011719 169.457031 189.039062 175.785156 182.597656 176.921875 C 182.535156 176.988281 182.460938 177.027344 182.371094 177.035156 L 181.945312 177.035156 L 180.75 177.117188 L 180.609375 177.117188 C 178.972656 176.929688 177.398438 176.5 175.890625 175.828125 C 174.386719 175.15625 173.015625 174.269531 171.785156 173.175781 C 170.292969 171.933594 169.042969 170.488281 168.039062 168.832031 C 165.910156 165.371094 164.71875 160.914062 164.546875 155.976562 C 164.375 151.039062 165.171875 145.847656 167.015625 141.789062 L 167.214844 141.332031 L 167.300781 141.21875 C 167.546875 140.710938 167.800781 140.226562 168.066406 139.773438 C 170.335938 135.347656 175.019531 132.367188 179.757812 132.367188 C 182.109375 132.332031 184.238281 133.003906 186.144531 134.382812 C 189.265625 136.195312 190.769531 138.863281 191.988281 141.050781 C 193.210938 143.234375 193.75 144.058594 194.800781 144.058594 L 195.082031 144.058594 C 198.742188 143.972656 202.261719 143.945312 205.808594 143.945312 L 206.09375 143.945312 L 206.890625 143.886719 L 208.421875 143.945312 L 208.476562 143.945312 L 210.152344 144 C 211.175781 144 211.855469 143.859375 212.140625 143.574219 C 212.238281 143.492188 212.292969 143.390625 212.308594 143.261719 C 211.457031 136.992188 209.386719 131.316406 206.179688 126.40625 C 204.300781 123.671875 202.09375 121.238281 199.554688 119.105469 C 197.015625 116.972656 194.238281 115.214844 191.222656 113.835938 C 187.820312 112.234375 184.246094 111.277344 180.496094 110.96875 C 179.816406 110.941406 179.164062 110.941406 178.507812 110.941406 Z M 189.746094 166.675781 L 185.519531 170.902344 L 184.980469 171.472656 C 184.527344 171.925781 184.214844 172.917969 183.929688 173.855469 C 183.902344 173.96875 183.84375 174.082031 183.816406 174.167969 C 187.082031 172.945312 189.976562 169.710938 191.707031 165.3125 Z M 194.628906 152.542969 C 196.585938 152.542969 198.347656 152.570312 199.992188 152.65625 L 200.363281 152.65625 C 201.636719 152.65625 203.683594 151.097656 205.1875 149.960938 C 205.828125 149.414062 206.507812 148.921875 207.230469 148.484375 L 209.472656 146.269531 L 208.335938 146.1875 L 208.28125 146.1875 L 206.890625 146.128906 L 205.808594 146.128906 C 202.292969 146.128906 198.800781 146.15625 195.167969 146.242188 L 194.800781 146.242188 C 194.34375 146.242188 193.898438 146.164062 193.464844 146.015625 L 186.457031 152.570312 L 188.726562 152.570312 Z M 169.96875 140.964844 C 176.523438 141.21875 179.417969 145.902344 181.519531 149.335938 C 182.3125 150.613281 182.992188 151.664062 183.617188 152.230469 L 191.621094 144.683594 C 191.019531 143.878906 190.480469 143.039062 190.003906 142.15625 C 188.925781 140.226562 187.589844 137.816406 184.980469 136.339844 L 184.839844 136.226562 C 183.328125 135.105469 181.636719 134.550781 179.757812 134.550781 C 175.871094 134.550781 171.984375 137.046875 170.082031 140.765625 L 170.023438 140.851562 Z M 169.96875 140.964844 " fill-opacity="1" fill-rule="nonzero"/><path stroke-linecap="butt" transform="matrix(0.903363, 0, 0, 0.903363, 79.658313, 149.332241)" fill="none" stroke-linejoin="miter" d="M 49.435364 29.005955 C 49.435364 32.876042 48.315417 36.893148 46.079848 41.061598 C 43.839954 45.217076 40.6747 48.468813 36.588408 50.812485 C 32.497791 53.156158 28.104487 54.327994 23.408494 54.327994 C 17.761195 54.327994 13.173306 52.667532 9.649149 49.342285 C 6.133641 46.017038 4.373724 41.636706 4.373724 36.205613 C 4.373724 31.725826 5.554209 27.591969 7.915178 23.808365 C 10.284794 20.016113 13.506263 17.006526 17.575258 14.788254 C 21.648578 12.565657 25.847297 11.454358 30.180064 11.454358 C 33.635035 11.454358 36.865151 12.198107 39.866089 13.694252 C 42.871352 15.186073 45.215024 17.261649 46.897106 19.916658 C 48.592161 22.563019 49.435364 25.594226 49.435364 29.005955 Z M 25.012742 44.196584 C 27.434249 44.196584 29.665494 43.534994 31.702154 42.207489 C 33.751786 40.871337 35.377654 39.146013 36.588408 37.035844 C 37.794837 34.92135 38.395889 32.828476 38.395889 30.761548 C 38.395889 28.201669 37.427287 26.030962 35.494406 24.253749 C 33.5572 22.472212 31.235149 21.581444 28.528251 21.581444 C 26.435377 21.581444 24.355476 22.156552 22.288548 23.302443 C 20.234591 24.439686 18.569806 25.9661 17.302839 27.886009 C 16.04452 29.801593 15.417523 31.933384 15.417523 34.277056 C 15.417523 37.156919 16.308292 39.53086 18.098477 41.398879 C 19.892986 43.266898 22.197741 44.196584 25.012742 44.196584 Z M 61.854232 12.794835 L 56.894468 44.144694 L 69.434412 44.144694 L 68.055018 53.000489 L 45.059356 53.000489 L 51.41581 12.794835 Z M 61.854232 12.794835 " stroke="#000000" stroke-width="3.999998" stroke-opacity="1" stroke-miterlimit="4"/><g fill="#ffffff" fill-opacity="1"><g transform="translate(79.658313, 197.210496)"><g><path d="M 44.65625 -21.671875 C 44.65625 -18.171875 43.640625 -14.539062 41.609375 -10.78125 C 39.585938 -7.03125 36.726562 -4.09375 33.03125 -1.96875 C 29.34375 0.144531 25.378906 1.203125 21.140625 1.203125 C 16.035156 1.203125 11.894531 -0.296875 8.71875 -3.296875 C 5.539062 -6.296875 3.953125 -10.253906 3.953125 -15.171875 C 3.953125 -19.222656 5.019531 -22.957031 7.15625 -26.375 C 9.289062 -29.789062 12.195312 -32.503906 15.875 -34.515625 C 19.550781 -36.523438 23.347656 -37.53125 27.265625 -37.53125 C 30.378906 -37.53125 33.289062 -36.851562 36 -35.5 C 38.71875 -34.15625 40.835938 -32.285156 42.359375 -29.890625 C 43.890625 -27.492188 44.65625 -24.753906 44.65625 -21.671875 Z M 22.59375 -7.953125 C 24.78125 -7.953125 26.796875 -8.550781 28.640625 -9.75 C 30.484375 -10.957031 31.953125 -12.515625 33.046875 -14.421875 C 34.140625 -16.335938 34.6875 -18.226562 34.6875 -20.09375 C 34.6875 -22.40625 33.8125 -24.363281 32.0625 -25.96875 C 30.3125 -27.570312 28.210938 -28.375 25.765625 -28.375 C 23.878906 -28.375 22.003906 -27.859375 20.140625 -26.828125 C 18.273438 -25.804688 16.769531 -24.425781 15.625 -22.6875 C 14.488281 -20.957031 13.921875 -19.03125 13.921875 -16.90625 C 13.921875 -14.300781 14.726562 -12.15625 16.34375 -10.46875 C 17.96875 -8.789062 20.050781 -7.953125 22.59375 -7.953125 Z M 22.59375 -7.953125 "/></g></g></g><g fill="#ffffff" fill-opacity="1"><g transform="translate(117.282168, 197.210496)"><g><path d="M 18.25 -36.328125 L 13.78125 -8 L 25.09375 -8 L 23.84375 0 L 3.078125 0 L 8.8125 -36.328125 Z M 18.25 -36.328125 "/></g></g></g><path stroke-linecap="butt" transform="matrix(0.75, 0, 0, 0.75, 184.946476, 149.431133)" fill="none" stroke-linejoin="miter" d="M 38.566159 15.576199 C 42.935951 15.576199 46.435951 16.607449 49.071368 18.664741 C 51.706785 20.716825 53.019285 23.664741 53.019285 27.508492 C 53.019285 31.628284 51.800535 35.263701 49.352618 38.409534 C 46.915118 41.555368 43.790118 43.466826 39.977617 44.149118 L 52.050535 63.998077 L 36.383867 63.998077 L 27.461992 45.373076 L 27.321367 45.373076 L 24.37345 63.998077 L 11.779699 63.998077 L 19.430741 15.576199 Z M 28.607825 37.279326 L 30.347409 37.279326 C 33.305742 37.279326 35.592201 36.659534 37.217201 35.414742 C 38.847409 34.16995 39.659909 32.352242 39.659909 29.956409 C 39.659909 26.789742 37.045326 25.206408 31.821367 25.206408 L 30.534909 25.206408 Z M 68.618244 15.576199 L 64.633869 41.138701 C 64.248452 43.445993 64.055744 45.33141 64.055744 46.784535 C 64.055744 49.227243 64.576577 51.08141 65.623453 52.347035 C 66.680744 53.602243 68.493244 54.232452 71.066161 54.232452 C 74.191161 54.232452 76.57137 53.216827 78.211995 51.190785 C 79.868245 49.149118 81.00887 45.945993 81.649495 41.576201 L 85.711995 15.576199 L 98.284913 15.576199 L 93.925538 43.440784 C 93.071371 49.097035 91.592204 53.404327 89.488037 56.36266 C 87.389079 59.310577 84.592204 61.539744 81.097412 63.044952 C 77.618245 64.539744 73.691161 65.284536 69.321369 65.284536 C 63.415119 65.284536 58.87866 64.008494 55.711994 61.461619 C 52.545327 58.909535 50.961993 55.195994 50.961993 50.326202 C 50.961993 49.42516 51.00366 48.445993 51.086993 47.378285 C 51.170327 46.30016 52.81616 35.701201 56.024494 15.576199 Z M 112.019289 15.576199 L 130.399498 45.180368 L 130.524498 45.180368 L 135.211999 15.576199 L 147.80575 15.576199 L 140.154707 63.998077 L 127.576582 63.998077 L 109.196372 34.331409 L 109.071372 34.331409 L 104.383872 63.998077 L 91.790121 63.998077 L 99.446371 15.576199 Z M 181.24846 31.820992 C 180.264085 30.10745 178.863043 28.789742 177.045335 27.873075 C 175.227626 26.9512 173.227626 26.492867 171.040126 26.492867 C 166.972417 26.492867 163.420334 28.055367 160.378667 31.180367 C 157.337 34.305367 155.816167 38.013701 155.816167 42.294951 C 155.816167 45.508493 156.842208 48.107451 158.904709 50.107452 C 160.962 52.091827 163.680751 53.086618 167.055751 53.086618 C 169.118251 53.086618 171.180751 52.628285 173.253668 51.70641 C 175.331793 50.784535 177.165126 49.529326 178.753668 47.940785 L 176.31096 63.044952 C 175.409918 63.336619 173.837001 63.779327 171.587001 64.378286 C 169.342209 64.982452 167.102626 65.284536 164.878667 65.284536 C 160.977625 65.284536 157.337 64.440786 153.946375 62.748077 C 150.571375 61.050161 147.842208 58.680369 145.764083 55.628285 C 143.691166 52.565785 142.639083 48.992868 142.597416 44.914743 C 142.597416 39.435576 143.941166 34.378284 146.639083 29.737659 C 149.337 25.086617 153.071375 21.347033 157.837 18.524116 C 162.613042 15.701199 167.534918 14.289741 172.59221 14.289741 C 176.191168 14.289741 179.889085 15.102241 183.696377 16.722033 Z M 197.363044 15.576199 L 194.415128 34.268909 L 212.592212 34.268909 L 215.555754 15.576199 L 228.128672 15.576199 L 220.493254 63.998077 L 207.899504 63.998077 L 211.055754 44.149118 L 192.878669 44.149118 L 189.727627 63.998077 L 177.133876 63.998077 L 184.784919 15.576199 Z M 197.363044 15.576199 " stroke="#000000" stroke-width="4.817933" stroke-opacity="1" stroke-miterlimit="4"/><g fill="#ffffff" fill-opacity="1"><g transform="translate(190.700382, 197.431129)"><g><path d="M 23.171875 -36.328125 C 26.441406 -36.328125 29.066406 -35.554688 31.046875 -34.015625 C 33.023438 -32.472656 34.015625 -30.253906 34.015625 -27.359375 C 34.015625 -24.273438 33.097656 -21.550781 31.265625 -19.1875 C 29.429688 -16.832031 27.085938 -15.398438 24.234375 -14.890625 L 33.28125 0 L 21.53125 0 L 14.84375 -13.96875 L 14.734375 -13.96875 L 12.53125 0 L 3.078125 0 L 8.8125 -36.328125 Z M 15.703125 -20.046875 L 17 -20.046875 C 19.21875 -20.046875 20.9375 -20.507812 22.15625 -21.4375 C 23.375 -22.363281 23.984375 -23.726562 23.984375 -25.53125 C 23.984375 -27.90625 22.023438 -29.09375 18.109375 -29.09375 L 17.15625 -29.09375 Z M 15.703125 -20.046875 "/></g></g></g><g fill="#ffffff" fill-opacity="1"><g transform="translate(218.344943, 197.431129)"><g><path d="M 18.0625 -36.328125 L 15.078125 -17.15625 C 14.785156 -15.414062 14.640625 -14 14.640625 -12.90625 C 14.640625 -11.082031 15.03125 -9.695312 15.8125 -8.75 C 16.601562 -7.800781 17.960938 -7.328125 19.890625 -7.328125 C 22.234375 -7.328125 24.023438 -8.085938 25.265625 -9.609375 C 26.503906 -11.128906 27.363281 -13.53125 27.84375 -16.8125 L 30.875 -36.328125 L 40.3125 -36.328125 L 37.046875 -15.421875 C 36.398438 -11.179688 35.289062 -7.953125 33.71875 -5.734375 C 32.144531 -3.515625 30.050781 -1.84375 27.4375 -0.71875 C 24.820312 0.40625 21.875 0.96875 18.59375 0.96875 C 14.164062 0.96875 10.757812 0.015625 8.375 -1.890625 C 6 -3.804688 4.8125 -6.597656 4.8125 -10.265625 C 4.8125 -10.929688 4.84375 -11.664062 4.90625 -12.46875 C 4.976562 -13.28125 6.21875 -21.234375 8.625 -36.328125 Z M 18.0625 -36.328125 "/></g></g></g><g fill="#ffffff" fill-opacity="1"><g transform="translate(250.709573, 197.431129)"><g><path d="M 18.25 -36.328125 L 32.03125 -14.109375 L 32.125 -14.109375 L 35.640625 -36.328125 L 45.09375 -36.328125 L 39.359375 0 L 29.921875 0 L 16.140625 -22.25 L 16.046875 -22.25 L 12.53125 0 L 3.078125 0 L 8.8125 -36.328125 Z M 18.25 -36.328125 "/></g></g></g><g fill="#ffffff" fill-opacity="1"><g transform="translate(288.0351, 197.431129)"><g><path d="M 32.859375 -24.140625 C 32.117188 -25.421875 31.066406 -26.40625 29.703125 -27.09375 C 28.335938 -27.78125 26.832031 -28.125 25.1875 -28.125 C 22.144531 -28.125 19.484375 -26.953125 17.203125 -24.609375 C 14.921875 -22.265625 13.78125 -19.488281 13.78125 -16.28125 C 13.78125 -13.875 14.550781 -11.921875 16.09375 -10.421875 C 17.632812 -8.929688 19.671875 -8.1875 22.203125 -8.1875 C 23.742188 -8.1875 25.289062 -8.53125 26.84375 -9.21875 C 28.40625 -9.914062 29.78125 -10.859375 30.96875 -12.046875 L 29.140625 -0.71875 C 28.460938 -0.5 27.28125 -0.164062 25.59375 0.28125 C 23.914062 0.738281 22.238281 0.96875 20.5625 0.96875 C 17.644531 0.96875 14.914062 0.332031 12.375 -0.9375 C 9.84375 -2.207031 7.796875 -3.988281 6.234375 -6.28125 C 4.679688 -8.582031 3.890625 -11.257812 3.859375 -14.3125 C 3.859375 -18.414062 4.867188 -22.207031 6.890625 -25.6875 C 8.910156 -29.175781 11.710938 -31.976562 15.296875 -34.09375 C 18.878906 -36.21875 22.5625 -37.28125 26.34375 -37.28125 C 29.039062 -37.28125 31.820312 -36.671875 34.6875 -35.453125 Z M 32.859375 -24.140625 "/></g></g></g><g fill="#ffffff" fill-opacity="1"><g transform="translate(314.71638, 197.431129)"><g><path d="M 18.25 -36.328125 L 16.046875 -22.296875 L 29.671875 -22.296875 L 31.890625 -36.328125 L 41.328125 -36.328125 L 35.59375 0 L 26.15625 0 L 28.515625 -14.890625 L 14.890625 -14.890625 L 12.53125 0 L 3.078125 0 L 8.8125 -36.328125 Z M 18.25 -36.328125 "/></g></g></g></svg>