<svg xmlns="http://www.w3.org/2000/svg" xmlns:xlink="http://www.w3.org/1999/xlink" width="500" zoomAndPan="magnify" viewBox="0 0 375 374.999991" height="500" preserveAspectRatio="xMidYMid meet" version="1.0"><defs><g/><clipPath id="b2f81df613"><path d="M 132.1875 67.582031 L 219.9375 67.582031 L 219.9375 233.988281 L 132.1875 233.988281 Z M 132.1875 67.582031 " clip-rule="nonzero"/></clipPath></defs><g fill="#6a95d8" fill-opacity="1"><g transform="translate(98.712076, 237.962761)"><g><path d="M 99.796875 -34 C 105.535156 -34 111.101562 -34.863281 116.5 -36.59375 C 121.894531 -38.332031 125.863281 -40 128.40625 -41.59375 L 132.203125 -44.203125 L 148.203125 -12.203125 C 147.671875 -11.796875 146.9375 -11.257812 146 -10.59375 C 145.0625 -9.925781 142.894531 -8.691406 139.5 -6.890625 C 136.101562 -5.097656 132.46875 -3.535156 128.59375 -2.203125 C 124.726562 -0.867188 119.660156 0.328125 113.390625 1.390625 C 107.128906 2.460938 100.664062 3 94 3 C 78.664062 3 64.128906 -0.765625 50.390625 -8.296875 C 36.660156 -15.828125 25.59375 -26.191406 17.1875 -39.390625 C 8.789062 -52.597656 4.59375 -66.867188 4.59375 -82.203125 C 4.59375 -93.796875 7.0625 -104.925781 12 -115.59375 C 16.9375 -126.257812 23.503906 -135.394531 31.703125 -143 C 39.898438 -150.601562 49.460938 -156.671875 60.390625 -161.203125 C 71.328125 -165.734375 82.53125 -168 94 -168 C 104.664062 -168 114.5 -166.734375 123.5 -164.203125 C 132.5 -161.671875 138.863281 -159.132812 142.59375 -156.59375 L 148.203125 -152.796875 L 132.203125 -120.796875 C 131.265625 -121.597656 129.863281 -122.566406 128 -123.703125 C 126.132812 -124.835938 122.398438 -126.335938 116.796875 -128.203125 C 111.203125 -130.066406 105.535156 -131 99.796875 -131 C 90.734375 -131 82.597656 -129.53125 75.390625 -126.59375 C 68.191406 -123.664062 62.492188 -119.800781 58.296875 -115 C 54.097656 -110.195312 50.898438 -105.03125 48.703125 -99.5 C 46.503906 -93.96875 45.40625 -88.332031 45.40625 -82.59375 C 45.40625 -70.0625 50.101562 -58.828125 59.5 -48.890625 C 68.894531 -38.960938 82.328125 -34 99.796875 -34 Z M 99.796875 -34 "/></g></g></g><g clip-path="url(#b2f81df613)"><path fill="#0f033f" d="M 197.859375 75.382812 L 201.859375 71.382812 L 216.117188 85.636719 L 169.109375 132.609375 L 211.679688 175.144531 L 156.601562 230.253906 L 152.601562 226.253906 L 203.675781 175.179688 L 161.109375 132.609375 L 208.082031 85.636719 Z M 150.71875 228.105469 L 148.601562 230.222656 L 134.34375 215.964844 L 175.164062 175.144531 L 132.59375 132.578125 L 193.824219 71.347656 L 195.941406 73.464844 L 201.828125 67.582031 L 219.851562 85.605469 L 172.875 132.609375 L 215.445312 175.144531 L 156.601562 233.988281 Z M 150.71875 228.105469 " fill-opacity="1" fill-rule="evenodd"/></g><path fill="#ffffff" d="M 156.601562 230.253906 L 211.679688 175.179688 L 169.109375 132.609375 L 216.085938 85.636719 L 201.828125 71.382812 L 140.632812 132.609375 L 183.164062 175.144531 L 142.347656 216 Z M 156.601562 230.253906 " fill-opacity="1" fill-rule="evenodd"/></svg>